<svg width="26" height="26" viewBox="0 0 26 26" fill="none" xmlns="http://www.w3.org/2000/svg">
<path d="M11.3313 3.12663H2.98197C2.34928 3.12663 1.74251 3.37796 1.29514 3.82534C0.847767 4.27271 0.596436 4.87948 0.596436 5.51216V22.2109C0.596436 22.8435 0.847767 23.4503 1.29514 23.8977C1.74251 24.3451 2.34928 24.5964 2.98197 24.5964H19.6807C20.3134 24.5964 20.9201 24.3451 21.3675 23.8977C21.8149 23.4503 22.0662 22.8435 22.0662 22.2109V13.8615" stroke="#FFE8F9" stroke-width="1.19276" stroke-linecap="round" stroke-linejoin="round"/>
<path d="M20.277 1.33748C20.7515 0.862967 21.395 0.59639 22.0661 0.59639C22.7372 0.59639 23.3807 0.862967 23.8553 1.33748C24.3298 1.81199 24.5963 2.45557 24.5963 3.12663C24.5963 3.79769 24.3298 4.44126 23.8553 4.91577L12.524 16.247L7.75293 17.4398L8.94569 12.6687L20.277 1.33748Z" stroke="#FFE8F9" stroke-width="1.19276" stroke-linecap="round" stroke-linejoin="round"/>
</svg>
