<svg width="26" height="26" viewBox="0 0 26 26" fill="none" xmlns="http://www.w3.org/2000/svg">
<path d="M23.1667 5.99999L21.8662 22.1893C21.8124 22.8621 21.4737 23.4917 20.9184 23.9514C20.3631 24.4111 19.6325 24.6667 18.8738 24.6667H6.45975C5.70096 24.6667 4.97035 24.4111 4.41508 23.9514C3.8598 23.4917 3.52112 22.8621 3.46725 22.1893L2.16675 5.99999M9.66675 11.3333V19.3333M15.6667 11.3333V19.3333M17.1667 5.99999V1.99999C17.1667 1.64637 17.0087 1.30723 16.7274 1.05718C16.4461 0.807132 16.0646 0.666656 15.6667 0.666656H9.66675C9.26892 0.666656 8.88739 0.807132 8.60609 1.05718C8.32478 1.30723 8.16675 1.64637 8.16675 1.99999V5.99999M0.666748 5.99999H24.6667" stroke="#FFE8F9" stroke-width="1.33333" stroke-linecap="round" stroke-linejoin="round"/>
</svg>
