<svg width="27" height="22" viewBox="0 0 27 22" fill="none" xmlns="http://www.w3.org/2000/svg">
<path d="M1.00009 5.28571L11.9584 12.8C12.4149 13.1133 12.9513 13.2804 13.5001 13.2804C14.0488 13.2804 14.5853 13.1133 15.0418 12.8L26.0001 5.28571M3.77787 21H23.2223C23.959 21 24.6656 20.699 25.1865 20.1632C25.7074 19.6273 26.0001 18.9006 26.0001 18.1429V3.85714C26.0001 3.09938 25.7074 2.37266 25.1865 1.83684C24.6656 1.30102 23.959 1 23.2223 1H3.77787C3.04116 1 2.33462 1.30102 1.81368 1.83684C1.29275 2.37266 1.00009 3.09938 1.00009 3.85714V18.1429C1.00009 18.9006 1.29275 19.6273 1.81368 20.1632C2.33462 20.699 3.04116 21 3.77787 21Z" stroke="white" stroke-width="2" stroke-linecap="round" stroke-linejoin="round"/>
</svg>
