<svg width="24" height="24" viewBox="0 0 24 24" fill="none" xmlns="http://www.w3.org/2000/svg">
<circle cx="12" cy="12" r="12" fill="#433D8B"/>
<path d="M12 12.75C12.5523 12.75 13 12.4142 13 12C13 11.5858 12.5523 11.25 12 11.25C11.4477 11.25 11 11.5858 11 12C11 12.4142 11.4477 12.75 12 12.75Z" stroke="#FFE8F9" stroke-width="1.5" stroke-linecap="round" stroke-linejoin="round"/>
<path d="M12 7.5C12.5523 7.5 13 7.16421 13 6.75C13 6.33579 12.5523 6 12 6C11.4477 6 11 6.33579 11 6.75C11 7.16421 11.4477 7.5 12 7.5Z" stroke="#FFE8F9" stroke-width="1.5" stroke-linecap="round" stroke-linejoin="round"/>
<path d="M12 18C12.5523 18 13 17.6642 13 17.25C13 16.8358 12.5523 16.5 12 16.5C11.4477 16.5 11 16.8358 11 17.25C11 17.6642 11.4477 18 12 18Z" stroke="#FFE8F9" stroke-width="1.5" stroke-linecap="round" stroke-linejoin="round"/>
</svg>
