<svg width="26" height="26" viewBox="0 0 26 26" fill="none" xmlns="http://www.w3.org/2000/svg">
<path d="M10.0001 8.66666V16.6667M15.3334 8.66666V16.6667M24.6667 12.6667C24.6667 14.2425 24.3564 15.803 23.7533 17.2589C23.1502 18.7148 22.2663 20.0376 21.152 21.1519C20.0377 22.2662 18.7149 23.1502 17.2589 23.7532C15.803 24.3563 14.2426 24.6667 12.6667 24.6667C11.0909 24.6667 9.53045 24.3563 8.07455 23.7532C6.61864 23.1502 5.29577 22.2662 4.18147 21.1519C3.06716 20.0376 2.18325 18.7148 1.58019 17.2589C0.977137 15.803 0.666748 14.2425 0.666748 12.6667C0.666748 9.48407 1.93103 6.43182 4.18147 4.18138C6.4319 1.93095 9.48415 0.666664 12.6667 0.666664C15.8493 0.666664 18.9016 1.93095 21.152 4.18138C23.4025 6.43182 24.6667 9.48407 24.6667 12.6667Z" stroke="#1C1A3F" stroke-width="1.33333" stroke-linecap="round" stroke-linejoin="round"/>
</svg>
