<svg width="26" height="16" viewBox="0 0 26 16" fill="none" xmlns="http://www.w3.org/2000/svg">
<path d="M24.6667 0.666664V14.6667M16.6667 0.666664V14.6667M0.666749 13.0813V2.25333C0.666749 1.10133 1.91075 0.378664 2.91075 0.950664L12.3881 6.36533C12.6178 6.49649 12.8088 6.68607 12.9416 6.91484C13.0744 7.14362 13.1444 7.40346 13.1444 7.668C13.1444 7.93254 13.0744 8.19237 12.9416 8.42115C12.8088 8.64993 12.6178 8.83951 12.3881 8.97066L2.91075 14.3853C2.68251 14.5157 2.42403 14.5838 2.16118 14.5828C1.89833 14.5819 1.64036 14.5118 1.4131 14.3798C1.18584 14.2477 0.997267 14.0582 0.866279 13.8304C0.735291 13.6025 0.666483 13.3442 0.666749 13.0813Z" stroke="#1C1A3F" stroke-width="1.33333" stroke-linecap="round" stroke-linejoin="round"/>
</svg>
