<svg width="22" height="27" viewBox="0 0 22 27" fill="none" xmlns="http://www.w3.org/2000/svg">
<path d="M16.7143 6.55556C16.7143 8.02898 16.1122 9.44206 15.0406 10.4839C13.969 11.5258 12.5155 12.1111 11 12.1111C9.48448 12.1111 8.03103 11.5258 6.95939 10.4839C5.88775 9.44206 5.28571 8.02898 5.28571 6.55556C5.28571 5.08213 5.88775 3.66905 6.95939 2.62718C8.03103 1.58532 9.48448 1 11 1C12.5155 1 13.969 1.58532 15.0406 2.62718C16.1122 3.66905 16.7143 5.08213 16.7143 6.55556ZM11 16.2778C8.34784 16.2778 5.8043 17.3021 3.92893 19.1254C2.05357 20.9486 1 23.4215 1 26H21C21 23.4215 19.9464 20.9486 18.0711 19.1254C16.1957 17.3021 13.6522 16.2778 11 16.2778Z" stroke="white" stroke-width="2" stroke-linecap="round" stroke-linejoin="round"/>
</svg>
